<svg xmlns="http://www.w3.org/2000/svg" viewBox="0 0 880 870.0" width="880" height="870.0" role="img" aria-label="Planta del galpón con los cuatro vanos, los dos arriostrados y los dos con portón, las vigas carrileras y el puente grúa">
<title>Planta del galpón con los cuatro vanos, los dos arriostrados y los dos con portón, las vigas carrileras y el puente grúa</title>
<rect width="880" height="870.0" fill="#fcfcfa"/>
<g font-family="ui-monospace, 'SF Mono', 'Cascadia Mono', Consolas, monospace" font-size="11" fill="#1b1b1b" stroke-linecap="round">
<text x="38.0" y="30.0" text-anchor="start" fill="#1b1b1b" font-size="12.5" font-weight="600">Planta · los cuatro vanos y el recorrido de la grúa</text>
<text x="38.0" y="47.0" text-anchor="start" fill="#5b5b5b" font-size="10" font-weight="400">El arriostramiento vertical existe solo en los vanos extremos;</text>
<text x="38.0" y="62.0" text-anchor="start" fill="#5b5b5b" font-size="10" font-weight="400">los dos centrales quedan libres por los portones, y la grúa</text>
<text x="38.0" y="77.0" text-anchor="start" fill="#5b5b5b" font-size="10" font-weight="400">los cruza descargando sobre las vigas carrileras.</text>
<rect x="128.0" y="150.0" width="540.0" height="450.0" fill="#f4f6f7" stroke="#1b1b1b" stroke-width="1.0"/>
<rect x="128.0" y="137.0" width="540.0" height="26.0" fill="#fcfcfa" stroke="#1b1b1b" stroke-width="1.2"/>
<rect x="128.0" y="587.0" width="540.0" height="26.0" fill="#fcfcfa" stroke="#1b1b1b" stroke-width="1.2"/>
<line x1="132.0" y1="141.0" x2="259.0" y2="159.0" stroke="#a4442c" stroke-width="2.2"/>
<line x1="132.0" y1="159.0" x2="259.0" y2="141.0" stroke="#a4442c" stroke-width="2.2"/>
<line x1="132.0" y1="591.0" x2="259.0" y2="609.0" stroke="#a4442c" stroke-width="2.2"/>
<line x1="132.0" y1="609.0" x2="259.0" y2="591.0" stroke="#a4442c" stroke-width="2.2"/>
<text x="195.5" y="116.0" text-anchor="middle" fill="#a4442c" font-size="10" font-weight="400">arriostrado</text>
<text x="195.5" y="646.0" text-anchor="middle" fill="#a4442c" font-size="10" font-weight="400">arriostrado</text>
<rect x="271.0" y="143.0" width="119.0" height="14.0" fill="#f2e6df" stroke="#1b1b1b" stroke-width="1.0"/>
<rect x="271.0" y="593.0" width="119.0" height="14.0" fill="#f2e6df" stroke="#1b1b1b" stroke-width="1.0"/>
<text x="330.5" y="116.0" text-anchor="middle" fill="#5b5b5b" font-size="10" font-weight="400">portón</text>
<text x="330.5" y="646.0" text-anchor="middle" fill="#5b5b5b" font-size="10" font-weight="400">portón</text>
<rect x="406.0" y="143.0" width="119.0" height="14.0" fill="#f2e6df" stroke="#1b1b1b" stroke-width="1.0"/>
<rect x="406.0" y="593.0" width="119.0" height="14.0" fill="#f2e6df" stroke="#1b1b1b" stroke-width="1.0"/>
<text x="465.5" y="116.0" text-anchor="middle" fill="#5b5b5b" font-size="10" font-weight="400">portón</text>
<text x="465.5" y="646.0" text-anchor="middle" fill="#5b5b5b" font-size="10" font-weight="400">portón</text>
<line x1="537.0" y1="141.0" x2="664.0" y2="159.0" stroke="#a4442c" stroke-width="2.2"/>
<line x1="537.0" y1="159.0" x2="664.0" y2="141.0" stroke="#a4442c" stroke-width="2.2"/>
<line x1="537.0" y1="591.0" x2="664.0" y2="609.0" stroke="#a4442c" stroke-width="2.2"/>
<line x1="537.0" y1="609.0" x2="664.0" y2="591.0" stroke="#a4442c" stroke-width="2.2"/>
<text x="600.5" y="116.0" text-anchor="middle" fill="#a4442c" font-size="10" font-weight="400">arriostrado</text>
<text x="600.5" y="646.0" text-anchor="middle" fill="#a4442c" font-size="10" font-weight="400">arriostrado</text>
<line x1="128.0" y1="129.0" x2="128.0" y2="621.0" stroke="#1b1b1b" stroke-width="1.4"/>
<text x="128.0" y="98.0" text-anchor="middle" fill="#1b1b1b" font-size="10.5" font-weight="600">A</text>
<line x1="263.0" y1="129.0" x2="263.0" y2="621.0" stroke="#1b1b1b" stroke-width="1.4"/>
<text x="263.0" y="98.0" text-anchor="middle" fill="#1b1b1b" font-size="10.5" font-weight="600">B</text>
<line x1="398.0" y1="129.0" x2="398.0" y2="621.0" stroke="#1b1b1b" stroke-width="1.4"/>
<text x="398.0" y="98.0" text-anchor="middle" fill="#1b1b1b" font-size="10.5" font-weight="600">C</text>
<line x1="533.0" y1="129.0" x2="533.0" y2="621.0" stroke="#1b1b1b" stroke-width="1.4"/>
<text x="533.0" y="98.0" text-anchor="middle" fill="#1b1b1b" font-size="10.5" font-weight="600">D</text>
<line x1="668.0" y1="129.0" x2="668.0" y2="621.0" stroke="#1b1b1b" stroke-width="1.4"/>
<text x="668.0" y="98.0" text-anchor="middle" fill="#1b1b1b" font-size="10.5" font-weight="600">E</text>
<line x1="134.0" y1="168.0" x2="662.0" y2="168.0" stroke="#2f5d7c" stroke-width="3.4"/>
<line x1="134.0" y1="582.0" x2="662.0" y2="582.0" stroke="#2f5d7c" stroke-width="3.4"/>
<rect x="426.0" y="168.0" width="16.0" height="414.0" fill="#d5d7da" stroke="#1b1b1b" stroke-width="1.3"/>
<rect x="408.0" y="363.0" width="52.0" height="24.0" fill="#d5d7da" stroke="#1b1b1b" stroke-width="1.3"/>
<line x1="460.0" y1="375.0" x2="712.0" y2="321.0" stroke="#8a6d3b" stroke-width="0.9"/>
<text x="717.0" y="324.5" text-anchor="start" fill="#8a6d3b" font-size="10.5" font-weight="400">200,00 kN</text>
<line x1="299.0" y1="168.0" x2="318.8" y2="242.0" stroke="#8a6d3b" stroke-width="0.9"/>
<text x="323.8" y="245.5" text-anchor="start" fill="#8a6d3b" font-size="10.5" font-weight="400">viga carrilera</text>
<line x1="128.0" y1="613.0" x2="128.0" y2="678.0" stroke="#c9c4b8" stroke-width="0.7" stroke-dasharray="3 3"/>
<line x1="263.0" y1="613.0" x2="263.0" y2="678.0" stroke="#c9c4b8" stroke-width="0.7" stroke-dasharray="3 3"/>
<line x1="128.0" y1="674.0" x2="128.0" y2="682.0" stroke="#8a6d3b" stroke-width="1"/>
<line x1="263.0" y1="674.0" x2="263.0" y2="682.0" stroke="#8a6d3b" stroke-width="1"/>
<line x1="128.0" y1="678.0" x2="263.0" y2="678.0" stroke="#8a6d3b" stroke-width="1"/>
<text x="195.5" y="691.0" text-anchor="middle" fill="#8a6d3b" font-size="10.5" font-weight="400">7,50 m</text>
<line x1="128.0" y1="716.0" x2="128.0" y2="724.0" stroke="#8a6d3b" stroke-width="1"/>
<line x1="668.0" y1="716.0" x2="668.0" y2="724.0" stroke="#8a6d3b" stroke-width="1"/>
<line x1="128.0" y1="720.0" x2="668.0" y2="720.0" stroke="#8a6d3b" stroke-width="1"/>
<text x="398.0" y="733.0" text-anchor="middle" fill="#8a6d3b" font-size="10.5" font-weight="400">30,00 m</text>
<line x1="66.0" y1="150.0" x2="74.0" y2="150.0" stroke="#8a6d3b" stroke-width="1"/>
<line x1="66.0" y1="600.0" x2="74.0" y2="600.0" stroke="#8a6d3b" stroke-width="1"/>
<line x1="70.0" y1="150.0" x2="70.0" y2="600.0" stroke="#8a6d3b" stroke-width="1"/>
<text x="64.0" y="379.0" text-anchor="end" fill="#8a6d3b" font-size="10.5" font-weight="400">25,00 m</text>
<line x1="772.0" y1="168.0" x2="780.0" y2="168.0" stroke="#8a6d3b" stroke-width="1"/>
<line x1="772.0" y1="582.0" x2="780.0" y2="582.0" stroke="#8a6d3b" stroke-width="1"/>
<line x1="776.0" y1="168.0" x2="776.0" y2="582.0" stroke="#8a6d3b" stroke-width="1"/>
<text x="782.0" y="379.0" text-anchor="start" fill="#8a6d3b" font-size="10.5" font-weight="400">23,00 m</text>
</g>
</svg>
