<svg xmlns="http://www.w3.org/2000/svg" viewBox="0 0 860 514" width="860" height="514" role="img" aria-label="Marco a dos aguas de 25,00 m de luz, 10,50 al alero y 13,00 a la cumbrera" font-family="ui-monospace,'IBM Plex Mono',Menlo,Consolas,monospace" font-size="11">
<title>Elevacion transversal - marco 3</title>
<rect width="860" height="514" fill="#fcfcfa"/>
<text x="34" y="18" fill="#2b2a26" font-size="13" font-weight="700">Elevacion transversal - marco 3</text>
<line x1="34.00" y1="472.00" x2="34.00" y2="419.06" stroke="#2b2a26" stroke-width="1.6" stroke-linecap="round"/>
<line x1="34.00" y1="419.06" x2="34.00" y2="366.12" stroke="#2b2a26" stroke-width="1.6" stroke-linecap="round"/>
<line x1="34.00" y1="366.12" x2="34.00" y2="313.18" stroke="#2b2a26" stroke-width="1.6" stroke-linecap="round"/>
<line x1="34.00" y1="313.18" x2="34.00" y2="260.24" stroke="#2b2a26" stroke-width="1.6" stroke-linecap="round"/>
<line x1="34.00" y1="260.24" x2="34.00" y2="253.78" stroke="#2b2a26" stroke-width="1.6" stroke-linecap="round"/>
<line x1="34.00" y1="253.78" x2="34.00" y2="247.32" stroke="#2b2a26" stroke-width="1.6" stroke-linecap="round"/>
<line x1="34.00" y1="247.32" x2="34.00" y2="240.86" stroke="#2b2a26" stroke-width="1.6" stroke-linecap="round"/>
<line x1="34.00" y1="240.86" x2="34.00" y2="234.40" stroke="#2b2a26" stroke-width="1.6" stroke-linecap="round"/>
<line x1="34.00" y1="234.40" x2="34.00" y2="210.64" stroke="#2b2a26" stroke-width="1.6" stroke-linecap="round"/>
<line x1="34.00" y1="210.64" x2="34.00" y2="186.88" stroke="#2b2a26" stroke-width="1.6" stroke-linecap="round"/>
<line x1="34.00" y1="186.88" x2="34.00" y2="163.12" stroke="#2b2a26" stroke-width="1.6" stroke-linecap="round"/>
<line x1="34.00" y1="163.12" x2="34.00" y2="139.36" stroke="#2b2a26" stroke-width="1.6" stroke-linecap="round"/>
<line x1="826.00" y1="472.00" x2="826.00" y2="419.06" stroke="#2b2a26" stroke-width="1.6" stroke-linecap="round"/>
<line x1="826.00" y1="419.06" x2="826.00" y2="366.12" stroke="#2b2a26" stroke-width="1.6" stroke-linecap="round"/>
<line x1="826.00" y1="366.12" x2="826.00" y2="313.18" stroke="#2b2a26" stroke-width="1.6" stroke-linecap="round"/>
<line x1="826.00" y1="313.18" x2="826.00" y2="260.24" stroke="#2b2a26" stroke-width="1.6" stroke-linecap="round"/>
<line x1="826.00" y1="260.24" x2="826.00" y2="253.78" stroke="#2b2a26" stroke-width="1.6" stroke-linecap="round"/>
<line x1="826.00" y1="253.78" x2="826.00" y2="247.32" stroke="#2b2a26" stroke-width="1.6" stroke-linecap="round"/>
<line x1="826.00" y1="247.32" x2="826.00" y2="240.86" stroke="#2b2a26" stroke-width="1.6" stroke-linecap="round"/>
<line x1="826.00" y1="240.86" x2="826.00" y2="234.40" stroke="#2b2a26" stroke-width="1.6" stroke-linecap="round"/>
<line x1="826.00" y1="234.40" x2="826.00" y2="210.64" stroke="#2b2a26" stroke-width="1.6" stroke-linecap="round"/>
<line x1="826.00" y1="210.64" x2="826.00" y2="186.88" stroke="#2b2a26" stroke-width="1.6" stroke-linecap="round"/>
<line x1="826.00" y1="186.88" x2="826.00" y2="163.12" stroke="#2b2a26" stroke-width="1.6" stroke-linecap="round"/>
<line x1="826.00" y1="163.12" x2="826.00" y2="139.36" stroke="#2b2a26" stroke-width="1.6" stroke-linecap="round"/>
<line x1="34.00" y1="139.36" x2="67.00" y2="132.76" stroke="#2b2a26" stroke-width="1.6" stroke-linecap="round"/>
<line x1="67.00" y1="132.76" x2="100.00" y2="126.16" stroke="#2b2a26" stroke-width="1.6" stroke-linecap="round"/>
<line x1="100.00" y1="126.16" x2="133.00" y2="119.56" stroke="#2b2a26" stroke-width="1.6" stroke-linecap="round"/>
<line x1="133.00" y1="119.56" x2="166.00" y2="112.96" stroke="#2b2a26" stroke-width="1.6" stroke-linecap="round"/>
<line x1="166.00" y1="112.96" x2="199.00" y2="106.36" stroke="#2b2a26" stroke-width="1.6" stroke-linecap="round"/>
<line x1="199.00" y1="106.36" x2="232.00" y2="99.76" stroke="#2b2a26" stroke-width="1.6" stroke-linecap="round"/>
<line x1="232.00" y1="99.76" x2="265.00" y2="93.16" stroke="#2b2a26" stroke-width="1.6" stroke-linecap="round"/>
<line x1="265.00" y1="93.16" x2="298.00" y2="86.56" stroke="#2b2a26" stroke-width="1.6" stroke-linecap="round"/>
<line x1="298.00" y1="86.56" x2="331.00" y2="79.96" stroke="#2b2a26" stroke-width="1.6" stroke-linecap="round"/>
<line x1="331.00" y1="79.96" x2="364.00" y2="73.36" stroke="#2b2a26" stroke-width="1.6" stroke-linecap="round"/>
<line x1="364.00" y1="73.36" x2="397.00" y2="66.76" stroke="#2b2a26" stroke-width="1.6" stroke-linecap="round"/>
<line x1="397.00" y1="66.76" x2="430.00" y2="60.16" stroke="#2b2a26" stroke-width="1.6" stroke-linecap="round"/>
<line x1="430.00" y1="60.16" x2="463.00" y2="66.76" stroke="#2b2a26" stroke-width="1.6" stroke-linecap="round"/>
<line x1="463.00" y1="66.76" x2="496.00" y2="73.36" stroke="#2b2a26" stroke-width="1.6" stroke-linecap="round"/>
<line x1="496.00" y1="73.36" x2="529.00" y2="79.96" stroke="#2b2a26" stroke-width="1.6" stroke-linecap="round"/>
<line x1="529.00" y1="79.96" x2="562.00" y2="86.56" stroke="#2b2a26" stroke-width="1.6" stroke-linecap="round"/>
<line x1="562.00" y1="86.56" x2="595.00" y2="93.16" stroke="#2b2a26" stroke-width="1.6" stroke-linecap="round"/>
<line x1="595.00" y1="93.16" x2="628.00" y2="99.76" stroke="#2b2a26" stroke-width="1.6" stroke-linecap="round"/>
<line x1="628.00" y1="99.76" x2="661.00" y2="106.36" stroke="#2b2a26" stroke-width="1.6" stroke-linecap="round"/>
<line x1="661.00" y1="106.36" x2="694.00" y2="112.96" stroke="#2b2a26" stroke-width="1.6" stroke-linecap="round"/>
<line x1="694.00" y1="112.96" x2="727.00" y2="119.56" stroke="#2b2a26" stroke-width="1.6" stroke-linecap="round"/>
<line x1="727.00" y1="119.56" x2="760.00" y2="126.16" stroke="#2b2a26" stroke-width="1.6" stroke-linecap="round"/>
<line x1="760.00" y1="126.16" x2="793.00" y2="132.76" stroke="#2b2a26" stroke-width="1.6" stroke-linecap="round"/>
<line x1="793.00" y1="132.76" x2="826.00" y2="139.36" stroke="#2b2a26" stroke-width="1.6" stroke-linecap="round"/>
<circle cx="34.00" cy="472.00" r="1.5" fill="#8a8578"/>
<circle cx="34.00" cy="419.06" r="1.5" fill="#8a8578"/>
<circle cx="34.00" cy="366.12" r="1.5" fill="#8a8578"/>
<circle cx="34.00" cy="313.18" r="1.5" fill="#8a8578"/>
<circle cx="34.00" cy="260.24" r="1.5" fill="#8a8578"/>
<circle cx="34.00" cy="253.78" r="1.5" fill="#8a8578"/>
<circle cx="34.00" cy="247.32" r="1.5" fill="#8a8578"/>
<circle cx="34.00" cy="240.86" r="1.5" fill="#8a8578"/>
<circle cx="34.00" cy="234.40" r="1.5" fill="#8a8578"/>
<circle cx="34.00" cy="210.64" r="1.5" fill="#8a8578"/>
<circle cx="34.00" cy="186.88" r="1.5" fill="#8a8578"/>
<circle cx="34.00" cy="163.12" r="1.5" fill="#8a8578"/>
<circle cx="34.00" cy="139.36" r="1.5" fill="#8a8578"/>
<circle cx="826.00" cy="472.00" r="1.5" fill="#8a8578"/>
<circle cx="826.00" cy="419.06" r="1.5" fill="#8a8578"/>
<circle cx="826.00" cy="366.12" r="1.5" fill="#8a8578"/>
<circle cx="826.00" cy="313.18" r="1.5" fill="#8a8578"/>
<circle cx="826.00" cy="260.24" r="1.5" fill="#8a8578"/>
<circle cx="826.00" cy="253.78" r="1.5" fill="#8a8578"/>
<circle cx="826.00" cy="247.32" r="1.5" fill="#8a8578"/>
<circle cx="826.00" cy="240.86" r="1.5" fill="#8a8578"/>
<circle cx="826.00" cy="234.40" r="1.5" fill="#8a8578"/>
<circle cx="826.00" cy="210.64" r="1.5" fill="#8a8578"/>
<circle cx="826.00" cy="186.88" r="1.5" fill="#8a8578"/>
<circle cx="826.00" cy="163.12" r="1.5" fill="#8a8578"/>
<circle cx="826.00" cy="139.36" r="1.5" fill="#8a8578"/>
<circle cx="67.00" cy="132.76" r="1.5" fill="#8a8578"/>
<circle cx="100.00" cy="126.16" r="1.5" fill="#8a8578"/>
<circle cx="133.00" cy="119.56" r="1.5" fill="#8a8578"/>
<circle cx="166.00" cy="112.96" r="1.5" fill="#8a8578"/>
<circle cx="199.00" cy="106.36" r="1.5" fill="#8a8578"/>
<circle cx="232.00" cy="99.76" r="1.5" fill="#8a8578"/>
<circle cx="265.00" cy="93.16" r="1.5" fill="#8a8578"/>
<circle cx="298.00" cy="86.56" r="1.5" fill="#8a8578"/>
<circle cx="331.00" cy="79.96" r="1.5" fill="#8a8578"/>
<circle cx="364.00" cy="73.36" r="1.5" fill="#8a8578"/>
<circle cx="397.00" cy="66.76" r="1.5" fill="#8a8578"/>
<circle cx="430.00" cy="60.16" r="1.5" fill="#8a8578"/>
<circle cx="463.00" cy="66.76" r="1.5" fill="#8a8578"/>
<circle cx="496.00" cy="73.36" r="1.5" fill="#8a8578"/>
<circle cx="529.00" cy="79.96" r="1.5" fill="#8a8578"/>
<circle cx="562.00" cy="86.56" r="1.5" fill="#8a8578"/>
<circle cx="595.00" cy="93.16" r="1.5" fill="#8a8578"/>
<circle cx="628.00" cy="99.76" r="1.5" fill="#8a8578"/>
<circle cx="661.00" cy="106.36" r="1.5" fill="#8a8578"/>
<circle cx="694.00" cy="112.96" r="1.5" fill="#8a8578"/>
<circle cx="727.00" cy="119.56" r="1.5" fill="#8a8578"/>
<circle cx="760.00" cy="126.16" r="1.5" fill="#8a8578"/>
<circle cx="793.00" cy="132.76" r="1.5" fill="#8a8578"/>
<rect x="31.40" y="136.76" width="5.2" height="5.2" fill="none" stroke="#2b2a26" stroke-width="0.9"/>
<rect x="163.40" y="110.36" width="5.2" height="5.2" fill="none" stroke="#2b2a26" stroke-width="0.9"/>
<rect x="295.40" y="83.96" width="5.2" height="5.2" fill="none" stroke="#2b2a26" stroke-width="0.9"/>
<rect x="427.40" y="57.56" width="5.2" height="5.2" fill="none" stroke="#2b2a26" stroke-width="0.9"/>
<rect x="559.40" y="83.96" width="5.2" height="5.2" fill="none" stroke="#2b2a26" stroke-width="0.9"/>
<rect x="691.40" y="110.36" width="5.2" height="5.2" fill="none" stroke="#2b2a26" stroke-width="0.9"/>
<rect x="823.40" y="136.76" width="5.2" height="5.2" fill="none" stroke="#2b2a26" stroke-width="0.9"/>
<polygon points="34.00,472.00 29.00,481.00 39.00,481.00" fill="#2b2a26"/>
<polygon points="826.00,472.00 821.00,481.00 831.00,481.00" fill="#2b2a26"/>
</svg>
