<svg xmlns="http://www.w3.org/2000/svg" viewBox="0 0 860 505" width="860" height="505" role="img" aria-label="Deformada del modo 1, el de mayor masa traslacional en Y" font-family="ui-monospace,'IBM Plex Mono',Menlo,Consolas,monospace" font-size="11">
<title>Modo 1 - transversal</title>
<rect width="860" height="505" fill="#fcfcfa"/>
<text x="34" y="18" fill="#2b2a26" font-size="13" font-weight="700">Modo 1 - transversal</text>
<line x1="77.56" y1="449.00" x2="77.56" y2="398.97" stroke="#c9c4b5" stroke-width="0.8" stroke-linecap="round" stroke-dasharray="3 3"/>
<line x1="77.56" y1="398.97" x2="77.56" y2="348.94" stroke="#c9c4b5" stroke-width="0.8" stroke-linecap="round" stroke-dasharray="3 3"/>
<line x1="77.56" y1="348.94" x2="77.56" y2="298.92" stroke="#c9c4b5" stroke-width="0.8" stroke-linecap="round" stroke-dasharray="3 3"/>
<line x1="77.56" y1="298.92" x2="77.56" y2="248.89" stroke="#c9c4b5" stroke-width="0.8" stroke-linecap="round" stroke-dasharray="3 3"/>
<line x1="77.56" y1="248.89" x2="77.56" y2="242.78" stroke="#c9c4b5" stroke-width="0.8" stroke-linecap="round" stroke-dasharray="3 3"/>
<line x1="77.56" y1="242.78" x2="77.56" y2="236.68" stroke="#c9c4b5" stroke-width="0.8" stroke-linecap="round" stroke-dasharray="3 3"/>
<line x1="77.56" y1="236.68" x2="77.56" y2="230.57" stroke="#c9c4b5" stroke-width="0.8" stroke-linecap="round" stroke-dasharray="3 3"/>
<line x1="77.56" y1="230.57" x2="77.56" y2="224.47" stroke="#c9c4b5" stroke-width="0.8" stroke-linecap="round" stroke-dasharray="3 3"/>
<line x1="77.56" y1="224.47" x2="77.56" y2="202.01" stroke="#c9c4b5" stroke-width="0.8" stroke-linecap="round" stroke-dasharray="3 3"/>
<line x1="77.56" y1="202.01" x2="77.56" y2="179.56" stroke="#c9c4b5" stroke-width="0.8" stroke-linecap="round" stroke-dasharray="3 3"/>
<line x1="77.56" y1="179.56" x2="77.56" y2="157.11" stroke="#c9c4b5" stroke-width="0.8" stroke-linecap="round" stroke-dasharray="3 3"/>
<line x1="77.56" y1="157.11" x2="77.56" y2="134.65" stroke="#c9c4b5" stroke-width="0.8" stroke-linecap="round" stroke-dasharray="3 3"/>
<line x1="826.00" y1="449.00" x2="826.00" y2="398.97" stroke="#c9c4b5" stroke-width="0.8" stroke-linecap="round" stroke-dasharray="3 3"/>
<line x1="826.00" y1="398.97" x2="826.00" y2="348.94" stroke="#c9c4b5" stroke-width="0.8" stroke-linecap="round" stroke-dasharray="3 3"/>
<line x1="826.00" y1="348.94" x2="826.00" y2="298.92" stroke="#c9c4b5" stroke-width="0.8" stroke-linecap="round" stroke-dasharray="3 3"/>
<line x1="826.00" y1="298.92" x2="826.00" y2="248.89" stroke="#c9c4b5" stroke-width="0.8" stroke-linecap="round" stroke-dasharray="3 3"/>
<line x1="826.00" y1="248.89" x2="826.00" y2="242.78" stroke="#c9c4b5" stroke-width="0.8" stroke-linecap="round" stroke-dasharray="3 3"/>
<line x1="826.00" y1="242.78" x2="826.00" y2="236.68" stroke="#c9c4b5" stroke-width="0.8" stroke-linecap="round" stroke-dasharray="3 3"/>
<line x1="826.00" y1="236.68" x2="826.00" y2="230.57" stroke="#c9c4b5" stroke-width="0.8" stroke-linecap="round" stroke-dasharray="3 3"/>
<line x1="826.00" y1="230.57" x2="826.00" y2="224.47" stroke="#c9c4b5" stroke-width="0.8" stroke-linecap="round" stroke-dasharray="3 3"/>
<line x1="826.00" y1="224.47" x2="826.00" y2="202.01" stroke="#c9c4b5" stroke-width="0.8" stroke-linecap="round" stroke-dasharray="3 3"/>
<line x1="826.00" y1="202.01" x2="826.00" y2="179.56" stroke="#c9c4b5" stroke-width="0.8" stroke-linecap="round" stroke-dasharray="3 3"/>
<line x1="826.00" y1="179.56" x2="826.00" y2="157.11" stroke="#c9c4b5" stroke-width="0.8" stroke-linecap="round" stroke-dasharray="3 3"/>
<line x1="826.00" y1="157.11" x2="826.00" y2="134.65" stroke="#c9c4b5" stroke-width="0.8" stroke-linecap="round" stroke-dasharray="3 3"/>
<line x1="77.56" y1="134.65" x2="108.74" y2="128.42" stroke="#c9c4b5" stroke-width="0.8" stroke-linecap="round" stroke-dasharray="3 3"/>
<line x1="108.74" y1="128.42" x2="139.93" y2="122.18" stroke="#c9c4b5" stroke-width="0.8" stroke-linecap="round" stroke-dasharray="3 3"/>
<line x1="139.93" y1="122.18" x2="171.11" y2="115.94" stroke="#c9c4b5" stroke-width="0.8" stroke-linecap="round" stroke-dasharray="3 3"/>
<line x1="171.11" y1="115.94" x2="202.30" y2="109.71" stroke="#c9c4b5" stroke-width="0.8" stroke-linecap="round" stroke-dasharray="3 3"/>
<line x1="202.30" y1="109.71" x2="233.48" y2="103.47" stroke="#c9c4b5" stroke-width="0.8" stroke-linecap="round" stroke-dasharray="3 3"/>
<line x1="233.48" y1="103.47" x2="264.67" y2="97.23" stroke="#c9c4b5" stroke-width="0.8" stroke-linecap="round" stroke-dasharray="3 3"/>
<line x1="264.67" y1="97.23" x2="295.85" y2="90.99" stroke="#c9c4b5" stroke-width="0.8" stroke-linecap="round" stroke-dasharray="3 3"/>
<line x1="295.85" y1="90.99" x2="327.04" y2="84.76" stroke="#c9c4b5" stroke-width="0.8" stroke-linecap="round" stroke-dasharray="3 3"/>
<line x1="327.04" y1="84.76" x2="358.22" y2="78.52" stroke="#c9c4b5" stroke-width="0.8" stroke-linecap="round" stroke-dasharray="3 3"/>
<line x1="358.22" y1="78.52" x2="389.41" y2="72.28" stroke="#c9c4b5" stroke-width="0.8" stroke-linecap="round" stroke-dasharray="3 3"/>
<line x1="389.41" y1="72.28" x2="420.59" y2="66.05" stroke="#c9c4b5" stroke-width="0.8" stroke-linecap="round" stroke-dasharray="3 3"/>
<line x1="420.59" y1="66.05" x2="451.78" y2="59.81" stroke="#c9c4b5" stroke-width="0.8" stroke-linecap="round" stroke-dasharray="3 3"/>
<line x1="451.78" y1="59.81" x2="482.96" y2="66.05" stroke="#c9c4b5" stroke-width="0.8" stroke-linecap="round" stroke-dasharray="3 3"/>
<line x1="482.96" y1="66.05" x2="514.15" y2="72.28" stroke="#c9c4b5" stroke-width="0.8" stroke-linecap="round" stroke-dasharray="3 3"/>
<line x1="514.15" y1="72.28" x2="545.33" y2="78.52" stroke="#c9c4b5" stroke-width="0.8" stroke-linecap="round" stroke-dasharray="3 3"/>
<line x1="545.33" y1="78.52" x2="576.52" y2="84.76" stroke="#c9c4b5" stroke-width="0.8" stroke-linecap="round" stroke-dasharray="3 3"/>
<line x1="576.52" y1="84.76" x2="607.70" y2="90.99" stroke="#c9c4b5" stroke-width="0.8" stroke-linecap="round" stroke-dasharray="3 3"/>
<line x1="607.70" y1="90.99" x2="638.89" y2="97.23" stroke="#c9c4b5" stroke-width="0.8" stroke-linecap="round" stroke-dasharray="3 3"/>
<line x1="638.89" y1="97.23" x2="670.07" y2="103.47" stroke="#c9c4b5" stroke-width="0.8" stroke-linecap="round" stroke-dasharray="3 3"/>
<line x1="670.07" y1="103.47" x2="701.26" y2="109.71" stroke="#c9c4b5" stroke-width="0.8" stroke-linecap="round" stroke-dasharray="3 3"/>
<line x1="701.26" y1="109.71" x2="732.44" y2="115.94" stroke="#c9c4b5" stroke-width="0.8" stroke-linecap="round" stroke-dasharray="3 3"/>
<line x1="732.44" y1="115.94" x2="763.63" y2="122.18" stroke="#c9c4b5" stroke-width="0.8" stroke-linecap="round" stroke-dasharray="3 3"/>
<line x1="763.63" y1="122.18" x2="794.81" y2="128.42" stroke="#c9c4b5" stroke-width="0.8" stroke-linecap="round" stroke-dasharray="3 3"/>
<line x1="794.81" y1="128.42" x2="826.00" y2="134.65" stroke="#c9c4b5" stroke-width="0.8" stroke-linecap="round" stroke-dasharray="3 3"/>
<line x1="77.56" y1="449.00" x2="76.18" y2="398.96" stroke="#2b2a26" stroke-width="1.6" stroke-linecap="round"/>
<line x1="76.18" y1="398.96" x2="72.34" y2="348.93" stroke="#2b2a26" stroke-width="1.6" stroke-linecap="round"/>
<line x1="72.34" y1="348.93" x2="66.48" y2="298.89" stroke="#2b2a26" stroke-width="1.6" stroke-linecap="round"/>
<line x1="66.48" y1="298.89" x2="59.07" y2="248.86" stroke="#2b2a26" stroke-width="1.6" stroke-linecap="round"/>
<line x1="59.07" y1="248.86" x2="58.06" y2="242.75" stroke="#2b2a26" stroke-width="1.6" stroke-linecap="round"/>
<line x1="58.06" y1="242.75" x2="56.99" y2="236.64" stroke="#2b2a26" stroke-width="1.6" stroke-linecap="round"/>
<line x1="56.99" y1="236.64" x2="55.87" y2="230.54" stroke="#2b2a26" stroke-width="1.6" stroke-linecap="round"/>
<line x1="55.87" y1="230.54" x2="54.69" y2="224.43" stroke="#2b2a26" stroke-width="1.6" stroke-linecap="round"/>
<line x1="54.69" y1="224.43" x2="49.96" y2="201.97" stroke="#2b2a26" stroke-width="1.6" stroke-linecap="round"/>
<line x1="49.96" y1="201.97" x2="44.77" y2="179.51" stroke="#2b2a26" stroke-width="1.6" stroke-linecap="round"/>
<line x1="44.77" y1="179.51" x2="39.37" y2="157.05" stroke="#2b2a26" stroke-width="1.6" stroke-linecap="round"/>
<line x1="39.37" y1="157.05" x2="34.00" y2="134.59" stroke="#2b2a26" stroke-width="1.6" stroke-linecap="round"/>
<line x1="826.00" y1="449.00" x2="824.62" y2="398.98" stroke="#2b2a26" stroke-width="1.6" stroke-linecap="round"/>
<line x1="824.62" y1="398.98" x2="820.78" y2="348.96" stroke="#2b2a26" stroke-width="1.6" stroke-linecap="round"/>
<line x1="820.78" y1="348.96" x2="814.92" y2="298.94" stroke="#2b2a26" stroke-width="1.6" stroke-linecap="round"/>
<line x1="814.92" y1="298.94" x2="807.51" y2="248.92" stroke="#2b2a26" stroke-width="1.6" stroke-linecap="round"/>
<line x1="807.51" y1="248.92" x2="806.50" y2="242.82" stroke="#2b2a26" stroke-width="1.6" stroke-linecap="round"/>
<line x1="806.50" y1="242.82" x2="805.43" y2="236.71" stroke="#2b2a26" stroke-width="1.6" stroke-linecap="round"/>
<line x1="805.43" y1="236.71" x2="804.31" y2="230.61" stroke="#2b2a26" stroke-width="1.6" stroke-linecap="round"/>
<line x1="804.31" y1="230.61" x2="803.13" y2="224.50" stroke="#2b2a26" stroke-width="1.6" stroke-linecap="round"/>
<line x1="803.13" y1="224.50" x2="798.40" y2="202.06" stroke="#2b2a26" stroke-width="1.6" stroke-linecap="round"/>
<line x1="798.40" y1="202.06" x2="793.22" y2="179.61" stroke="#2b2a26" stroke-width="1.6" stroke-linecap="round"/>
<line x1="793.22" y1="179.61" x2="787.81" y2="157.16" stroke="#2b2a26" stroke-width="1.6" stroke-linecap="round"/>
<line x1="787.81" y1="157.16" x2="782.44" y2="134.72" stroke="#2b2a26" stroke-width="1.6" stroke-linecap="round"/>
<line x1="34.00" y1="134.59" x2="63.84" y2="121.51" stroke="#2b2a26" stroke-width="1.6" stroke-linecap="round"/>
<line x1="63.84" y1="121.51" x2="93.88" y2="109.39" stroke="#2b2a26" stroke-width="1.6" stroke-linecap="round"/>
<line x1="93.88" y1="109.39" x2="124.13" y2="98.35" stroke="#2b2a26" stroke-width="1.6" stroke-linecap="round"/>
<line x1="124.13" y1="98.35" x2="154.63" y2="88.56" stroke="#2b2a26" stroke-width="1.6" stroke-linecap="round"/>
<line x1="154.63" y1="88.56" x2="185.39" y2="80.15" stroke="#2b2a26" stroke-width="1.6" stroke-linecap="round"/>
<line x1="185.39" y1="80.15" x2="216.45" y2="73.18" stroke="#2b2a26" stroke-width="1.6" stroke-linecap="round"/>
<line x1="216.45" y1="73.18" x2="247.79" y2="67.67" stroke="#2b2a26" stroke-width="1.6" stroke-linecap="round"/>
<line x1="247.79" y1="67.67" x2="279.44" y2="63.66" stroke="#2b2a26" stroke-width="1.6" stroke-linecap="round"/>
<line x1="279.44" y1="63.66" x2="311.36" y2="61.13" stroke="#2b2a26" stroke-width="1.6" stroke-linecap="round"/>
<line x1="311.36" y1="61.13" x2="343.54" y2="59.87" stroke="#2b2a26" stroke-width="1.6" stroke-linecap="round"/>
<line x1="343.54" y1="59.87" x2="375.92" y2="59.57" stroke="#2b2a26" stroke-width="1.6" stroke-linecap="round"/>
<line x1="375.92" y1="59.57" x2="408.40" y2="59.81" stroke="#2b2a26" stroke-width="1.6" stroke-linecap="round"/>
<line x1="408.40" y1="59.81" x2="438.29" y2="72.52" stroke="#2b2a26" stroke-width="1.6" stroke-linecap="round"/>
<line x1="438.29" y1="72.52" x2="468.29" y2="84.70" stroke="#2b2a26" stroke-width="1.6" stroke-linecap="round"/>
<line x1="468.29" y1="84.70" x2="498.48" y2="95.92" stroke="#2b2a26" stroke-width="1.6" stroke-linecap="round"/>
<line x1="498.48" y1="95.92" x2="528.92" y2="105.86" stroke="#2b2a26" stroke-width="1.6" stroke-linecap="round"/>
<line x1="528.92" y1="105.86" x2="559.64" y2="114.32" stroke="#2b2a26" stroke-width="1.6" stroke-linecap="round"/>
<line x1="559.64" y1="114.32" x2="590.67" y2="121.29" stroke="#2b2a26" stroke-width="1.6" stroke-linecap="round"/>
<line x1="590.67" y1="121.29" x2="621.99" y2="126.79" stroke="#2b2a26" stroke-width="1.6" stroke-linecap="round"/>
<line x1="621.99" y1="126.79" x2="653.59" y2="130.85" stroke="#2b2a26" stroke-width="1.6" stroke-linecap="round"/>
<line x1="653.59" y1="130.85" x2="685.46" y2="133.53" stroke="#2b2a26" stroke-width="1.6" stroke-linecap="round"/>
<line x1="685.46" y1="133.53" x2="717.58" y2="134.97" stroke="#2b2a26" stroke-width="1.6" stroke-linecap="round"/>
<line x1="717.58" y1="134.97" x2="749.91" y2="135.33" stroke="#2b2a26" stroke-width="1.6" stroke-linecap="round"/>
<line x1="749.91" y1="135.33" x2="782.44" y2="134.72" stroke="#2b2a26" stroke-width="1.6" stroke-linecap="round"/>
<rect x="31.40" y="131.99" width="5.2" height="5.2" fill="none" stroke="#2b2a26" stroke-width="0.9"/>
<rect x="152.03" y="85.96" width="5.2" height="5.2" fill="none" stroke="#2b2a26" stroke-width="0.9"/>
<rect x="276.84" y="61.06" width="5.2" height="5.2" fill="none" stroke="#2b2a26" stroke-width="0.9"/>
<rect x="405.80" y="57.21" width="5.2" height="5.2" fill="none" stroke="#2b2a26" stroke-width="0.9"/>
<rect x="526.32" y="103.26" width="5.2" height="5.2" fill="none" stroke="#2b2a26" stroke-width="0.9"/>
<rect x="650.99" y="128.25" width="5.2" height="5.2" fill="none" stroke="#2b2a26" stroke-width="0.9"/>
<rect x="779.84" y="132.12" width="5.2" height="5.2" fill="none" stroke="#2b2a26" stroke-width="0.9"/>
<polygon points="77.56,449.00 72.56,458.00 82.56,458.00" fill="#2b2a26"/>
<polygon points="826.00,449.00 821.00,458.00 831.00,458.00" fill="#2b2a26"/>
<text x="34" y="498" fill="#8a8578" font-size="10">deformada amplificada · el trazo punteado es la geometría sin deformar</text>
</svg>
