<svg xmlns="http://www.w3.org/2000/svg" viewBox="0 0 700 344" width="700" height="344" role="img" aria-label="Las dos rampas de la Ec. 1b: la del galpon de la fila 5.5 termina en la frontera de 0,28 s y la del galpon liviano en 0,224 s, con los dos periodos de analisis marcados" font-family="ui-monospace,'IBM Plex Mono',Menlo,Consolas,monospace" font-size="11">
<title>Rampas de R* para R igual a 5 y R igual a 4</title>
<rect width="700" height="344" fill="#fcfcfa"/>
<line x1="78" y1="212.5" x2="630" y2="212.5" stroke="#c9c4b5" stroke-width="0.6"/>
<text x="70.0" y="216.5" fill="#8a8578" text-anchor="end" font-size="11" font-weight="normal">1,0</text>
<line x1="78" y1="175.0" x2="630" y2="175.0" stroke="#c9c4b5" stroke-width="0.6"/>
<text x="70.0" y="179.0" fill="#8a8578" text-anchor="end" font-size="11" font-weight="normal">2,0</text>
<line x1="78" y1="137.5" x2="630" y2="137.5" stroke="#c9c4b5" stroke-width="0.6"/>
<text x="70.0" y="141.5" fill="#8a8578" text-anchor="end" font-size="11" font-weight="normal">3,0</text>
<line x1="78" y1="100.0" x2="630" y2="100.0" stroke="#c9c4b5" stroke-width="0.6"/>
<text x="70.0" y="104.0" fill="#8a8578" text-anchor="end" font-size="11" font-weight="normal">4,0</text>
<line x1="78" y1="62.5" x2="630" y2="62.5" stroke="#c9c4b5" stroke-width="0.6"/>
<text x="70.0" y="66.5" fill="#8a8578" text-anchor="end" font-size="11" font-weight="normal">5,0</text>
<line x1="170.0" y1="40" x2="170.0" y2="250" stroke="#c9c4b5" stroke-width="0.6"/>
<text x="170.0" y="268.0" fill="#8a8578" text-anchor="middle" font-size="11" font-weight="normal">0,1</text>
<line x1="262.0" y1="40" x2="262.0" y2="250" stroke="#c9c4b5" stroke-width="0.6"/>
<text x="262.0" y="268.0" fill="#8a8578" text-anchor="middle" font-size="11" font-weight="normal">0,2</text>
<line x1="354.0" y1="40" x2="354.0" y2="250" stroke="#c9c4b5" stroke-width="0.6"/>
<text x="354.0" y="268.0" fill="#8a8578" text-anchor="middle" font-size="11" font-weight="normal">0,3</text>
<line x1="446.0" y1="40" x2="446.0" y2="250" stroke="#c9c4b5" stroke-width="0.6"/>
<text x="446.0" y="268.0" fill="#8a8578" text-anchor="middle" font-size="11" font-weight="normal">0,4</text>
<line x1="538.0" y1="40" x2="538.0" y2="250" stroke="#c9c4b5" stroke-width="0.6"/>
<text x="538.0" y="268.0" fill="#8a8578" text-anchor="middle" font-size="11" font-weight="normal">0,5</text>
<line x1="630.0" y1="40" x2="630.0" y2="250" stroke="#c9c4b5" stroke-width="0.6"/>
<text x="630.0" y="268.0" fill="#8a8578" text-anchor="middle" font-size="11" font-weight="normal">0,6</text>
<text x="70.0" y="254.0" fill="#8a8578" text-anchor="end" font-size="11" font-weight="normal">0</text>
<text x="78.0" y="268.0" fill="#8a8578" text-anchor="middle" font-size="11" font-weight="normal">0</text>
<line x1="78" y1="250" x2="642" y2="250" stroke="#2b2a26" stroke-width="1"/>
<polygon points="642,250 634,246.5 634,253.5" fill="#2b2a26"/>
<line x1="78" y1="250" x2="78" y2="28" stroke="#2b2a26" stroke-width="1"/>
<polygon points="78,28 74.5,36 81.5,36" fill="#2b2a26"/>
<text x="636.0" y="284.0" fill="#8a8578" text-anchor="middle" font-size="11" font-weight="normal">T [s]</text>
<text x="26.0" y="24.0" fill="#8a8578" text-anchor="start" font-size="11" font-weight="normal">R*</text>
<polyline points="78.0,193.8 79.4,193.0 80.8,192.3 82.1,191.6 83.5,190.9 84.9,190.2 86.3,189.5 87.7,188.8 89.0,188.1 90.4,187.4 91.8,186.7 93.2,186.0 94.6,185.3 95.9,184.6 97.3,183.9 98.7,183.2 100.1,182.5 101.5,181.8 102.8,181.1 104.2,180.4 105.6,179.7 107.0,179.0 108.4,178.3 109.7,177.6 111.1,176.9 112.5,176.2 113.9,175.5 115.3,174.8 116.6,174.1 118.0,173.4 119.4,172.7 120.8,172.0 122.2,171.2 123.5,170.5 124.9,169.8 126.3,169.1 127.7,168.4 129.1,167.7 130.4,167.0 131.8,166.3 133.2,165.6 134.6,164.9 136.0,164.2 137.3,163.5 138.7,162.8 140.1,162.1 141.5,161.4 142.9,160.7 144.2,160.0 145.6,159.3 147.0,158.6 148.4,157.9 149.8,157.2 151.1,156.5 152.5,155.8 153.9,155.1 155.3,154.4 156.7,153.7 158.0,153.0 159.4,152.3 160.8,151.6 162.2,150.9 163.6,150.2 164.9,149.5 166.3,148.8 167.7,148.0 169.1,147.3 170.5,146.6 171.8,145.9 173.2,145.2 174.6,144.5 176.0,143.8 177.4,143.1 178.7,142.4 180.1,141.7 181.5,141.0 182.9,140.3 184.3,139.6 185.6,138.9 187.0,138.2 188.4,137.5 189.8,136.8 191.2,136.1 192.5,135.4 193.9,134.7 195.3,134.0 196.7,133.3 198.1,132.6 199.4,131.9 200.8,131.2 202.2,130.5 203.6,129.8 205.0,129.1 206.3,128.4 207.7,127.7 209.1,127.0 210.5,126.2 211.9,125.5 213.2,124.8 214.6,124.1 216.0,123.4 217.4,122.7 218.8,122.0 220.1,121.3 221.5,120.6 222.9,119.9 224.3,119.2 225.7,118.5 227.0,117.8 228.4,117.1 229.8,116.4 231.2,115.7 232.6,115.0 233.9,114.3 235.3,113.6 236.7,112.9 238.1,112.2 239.5,111.5 240.8,110.8 242.2,110.1 243.6,109.4 245.0,108.7 246.4,108.0 247.7,107.3 249.1,106.6 250.5,105.9 251.9,105.2 253.3,104.5 254.6,103.7 256.0,103.0 257.4,102.3 258.8,101.6 260.2,100.9 261.5,100.2 262.9,99.5 264.3,98.8 265.7,98.1 267.1,97.4 268.4,96.7 269.8,96.0 271.2,95.3 272.6,94.6 274.0,93.9 275.3,93.2 276.7,92.5 278.1,91.8 279.5,91.1 280.9,90.4 282.2,89.7 283.6,89.0 285.0,88.3 286.4,87.6 287.8,86.9 289.1,86.2 290.5,85.5 291.9,84.8 293.3,84.1 294.7,83.4 296.0,82.7 297.4,82.0 298.8,81.2 300.2,80.5 301.6,79.8 302.9,79.1 304.3,78.4 305.7,77.7 307.1,77.0 308.5,76.3 309.8,75.6 311.2,74.9 312.6,74.2 314.0,73.5 315.4,72.8 316.7,72.1 318.1,71.4 319.5,70.7 320.9,70.0 322.3,69.3 323.6,68.6 325.0,67.9 326.4,67.2 327.8,66.5 329.2,65.8 330.5,65.1 331.9,64.4 333.3,63.7 334.7,63.0 336.1,62.5 337.4,62.5 338.8,62.5 340.2,62.5 341.6,62.5 343.0,62.5 344.3,62.5 345.7,62.5 347.1,62.5 348.5,62.5 349.9,62.5 351.2,62.5 352.6,62.5 354.0,62.5 355.4,62.5 356.8,62.5 358.1,62.5 359.5,62.5 360.9,62.5 362.3,62.5 363.7,62.5 365.0,62.5 366.4,62.5 367.8,62.5 369.2,62.5 370.6,62.5 371.9,62.5 373.3,62.5 374.7,62.5 376.1,62.5 377.5,62.5 378.8,62.5 380.2,62.5 381.6,62.5 383.0,62.5 384.4,62.5 385.7,62.5 387.1,62.5 388.5,62.5 389.9,62.5 391.3,62.5 392.6,62.5 394.0,62.5 395.4,62.5 396.8,62.5 398.2,62.5 399.5,62.5 400.9,62.5 402.3,62.5 403.7,62.5 405.1,62.5 406.4,62.5 407.8,62.5 409.2,62.5 410.6,62.5 412.0,62.5 413.3,62.5 414.7,62.5 416.1,62.5 417.5,62.5 418.9,62.5 420.2,62.5 421.6,62.5 423.0,62.5 424.4,62.5 425.8,62.5 427.1,62.5 428.5,62.5 429.9,62.5 431.3,62.5 432.7,62.5 434.0,62.5 435.4,62.5 436.8,62.5 438.2,62.5 439.6,62.5 440.9,62.5 442.3,62.5 443.7,62.5 445.1,62.5 446.5,62.5 447.8,62.5 449.2,62.5 450.6,62.5 452.0,62.5 453.4,62.5 454.7,62.5 456.1,62.5 457.5,62.5 458.9,62.5 460.3,62.5 461.6,62.5 463.0,62.5 464.4,62.5 465.8,62.5 467.2,62.5 468.5,62.5 469.9,62.5 471.3,62.5 472.7,62.5 474.1,62.5 475.4,62.5 476.8,62.5 478.2,62.5 479.6,62.5 481.0,62.5 482.3,62.5 483.7,62.5 485.1,62.5 486.5,62.5 487.9,62.5 489.2,62.5 490.6,62.5 492.0,62.5 493.4,62.5 494.8,62.5 496.1,62.5 497.5,62.5 498.9,62.5 500.3,62.5 501.7,62.5 503.0,62.5 504.4,62.5 505.8,62.5 507.2,62.5 508.6,62.5 509.9,62.5 511.3,62.5 512.7,62.5 514.1,62.5 515.5,62.5 516.8,62.5 518.2,62.5 519.6,62.5 521.0,62.5 522.4,62.5 523.7,62.5 525.1,62.5 526.5,62.5 527.9,62.5 529.3,62.5 530.6,62.5 532.0,62.5 533.4,62.5 534.8,62.5 536.2,62.5 537.5,62.5 538.9,62.5 540.3,62.5 541.7,62.5 543.1,62.5 544.4,62.5 545.8,62.5 547.2,62.5 548.6,62.5 550.0,62.5 551.3,62.5 552.7,62.5 554.1,62.5 555.5,62.5 556.9,62.5 558.2,62.5 559.6,62.5 561.0,62.5 562.4,62.5 563.8,62.5 565.1,62.5 566.5,62.5 567.9,62.5 569.3,62.5 570.7,62.5 572.0,62.5 573.4,62.5 574.8,62.5 576.2,62.5 577.6,62.5 578.9,62.5 580.3,62.5 581.7,62.5 583.1,62.5 584.5,62.5 585.8,62.5 587.2,62.5 588.6,62.5 590.0,62.5 591.4,62.5 592.7,62.5 594.1,62.5 595.5,62.5 596.9,62.5 598.3,62.5 599.6,62.5 601.0,62.5 602.4,62.5 603.8,62.5 605.2,62.5 606.5,62.5 607.9,62.5 609.3,62.5 610.7,62.5 612.1,62.5 613.4,62.5 614.8,62.5 616.2,62.5 617.6,62.5 619.0,62.5 620.3,62.5 621.7,62.5 623.1,62.5 624.5,62.5 625.9,62.5 627.2,62.5 628.6,62.5 630.0,62.5" fill="none" stroke="#2f5d7c" stroke-width="2.0"/>
<line x1="335.6" y1="62.5" x2="335.6" y2="250" stroke="#2f5d7c" stroke-width="0.9" stroke-dasharray="3 3"/>
<text x="340.6" y="242.0" fill="#2f5d7c" text-anchor="start" font-size="10" font-weight="normal">0,280 s</text>
<text x="622.0" y="55.5" fill="#2f5d7c" text-anchor="end" font-size="10" font-weight="normal">fila 5.5 · R = 5</text>
<polyline points="78.0,193.8 79.4,193.1 80.8,192.5 82.1,191.9 83.5,191.2 84.9,190.6 86.3,190.0 87.7,189.4 89.0,188.7 90.4,188.1 91.8,187.5 93.2,186.8 94.6,186.2 95.9,185.6 97.3,185.0 98.7,184.3 100.1,183.7 101.5,183.1 102.8,182.4 104.2,181.8 105.6,181.2 107.0,180.6 108.4,179.9 109.7,179.3 111.1,178.7 112.5,178.1 113.9,177.4 115.3,176.8 116.6,176.2 118.0,175.5 119.4,174.9 120.8,174.3 122.2,173.7 123.5,173.0 124.9,172.4 126.3,171.8 127.7,171.1 129.1,170.5 130.4,169.9 131.8,169.3 133.2,168.6 134.6,168.0 136.0,167.4 137.3,166.8 138.7,166.1 140.1,165.5 141.5,164.9 142.9,164.2 144.2,163.6 145.6,163.0 147.0,162.4 148.4,161.7 149.8,161.1 151.1,160.5 152.5,159.8 153.9,159.2 155.3,158.6 156.7,158.0 158.0,157.3 159.4,156.7 160.8,156.1 162.2,155.5 163.6,154.8 164.9,154.2 166.3,153.6 167.7,152.9 169.1,152.3 170.5,151.7 171.8,151.1 173.2,150.4 174.6,149.8 176.0,149.2 177.4,148.5 178.7,147.9 180.1,147.3 181.5,146.7 182.9,146.0 184.3,145.4 185.6,144.8 187.0,144.2 188.4,143.5 189.8,142.9 191.2,142.3 192.5,141.6 193.9,141.0 195.3,140.4 196.7,139.8 198.1,139.1 199.4,138.5 200.8,137.9 202.2,137.2 203.6,136.6 205.0,136.0 206.3,135.4 207.7,134.7 209.1,134.1 210.5,133.5 211.9,132.9 213.2,132.2 214.6,131.6 216.0,131.0 217.4,130.3 218.8,129.7 220.1,129.1 221.5,128.5 222.9,127.8 224.3,127.2 225.7,126.6 227.0,125.9 228.4,125.3 229.8,124.7 231.2,124.1 232.6,123.4 233.9,122.8 235.3,122.2 236.7,121.6 238.1,120.9 239.5,120.3 240.8,119.7 242.2,119.0 243.6,118.4 245.0,117.8 246.4,117.2 247.7,116.5 249.1,115.9 250.5,115.3 251.9,114.6 253.3,114.0 254.6,113.4 256.0,112.8 257.4,112.1 258.8,111.5 260.2,110.9 261.5,110.3 262.9,109.6 264.3,109.0 265.7,108.4 267.1,107.7 268.4,107.1 269.8,106.5 271.2,105.9 272.6,105.2 274.0,104.6 275.3,104.0 276.7,103.3 278.1,102.7 279.5,102.1 280.9,101.5 282.2,100.8 283.6,100.2 285.0,100.0 286.4,100.0 287.8,100.0 289.1,100.0 290.5,100.0 291.9,100.0 293.3,100.0 294.7,100.0 296.0,100.0 297.4,100.0 298.8,100.0 300.2,100.0 301.6,100.0 302.9,100.0 304.3,100.0 305.7,100.0 307.1,100.0 308.5,100.0 309.8,100.0 311.2,100.0 312.6,100.0 314.0,100.0 315.4,100.0 316.7,100.0 318.1,100.0 319.5,100.0 320.9,100.0 322.3,100.0 323.6,100.0 325.0,100.0 326.4,100.0 327.8,100.0 329.2,100.0 330.5,100.0 331.9,100.0 333.3,100.0 334.7,100.0 336.1,100.0 337.4,100.0 338.8,100.0 340.2,100.0 341.6,100.0 343.0,100.0 344.3,100.0 345.7,100.0 347.1,100.0 348.5,100.0 349.9,100.0 351.2,100.0 352.6,100.0 354.0,100.0 355.4,100.0 356.8,100.0 358.1,100.0 359.5,100.0 360.9,100.0 362.3,100.0 363.7,100.0 365.0,100.0 366.4,100.0 367.8,100.0 369.2,100.0 370.6,100.0 371.9,100.0 373.3,100.0 374.7,100.0 376.1,100.0 377.5,100.0 378.8,100.0 380.2,100.0 381.6,100.0 383.0,100.0 384.4,100.0 385.7,100.0 387.1,100.0 388.5,100.0 389.9,100.0 391.3,100.0 392.6,100.0 394.0,100.0 395.4,100.0 396.8,100.0 398.2,100.0 399.5,100.0 400.9,100.0 402.3,100.0 403.7,100.0 405.1,100.0 406.4,100.0 407.8,100.0 409.2,100.0 410.6,100.0 412.0,100.0 413.3,100.0 414.7,100.0 416.1,100.0 417.5,100.0 418.9,100.0 420.2,100.0 421.6,100.0 423.0,100.0 424.4,100.0 425.8,100.0 427.1,100.0 428.5,100.0 429.9,100.0 431.3,100.0 432.7,100.0 434.0,100.0 435.4,100.0 436.8,100.0 438.2,100.0 439.6,100.0 440.9,100.0 442.3,100.0 443.7,100.0 445.1,100.0 446.5,100.0 447.8,100.0 449.2,100.0 450.6,100.0 452.0,100.0 453.4,100.0 454.7,100.0 456.1,100.0 457.5,100.0 458.9,100.0 460.3,100.0 461.6,100.0 463.0,100.0 464.4,100.0 465.8,100.0 467.2,100.0 468.5,100.0 469.9,100.0 471.3,100.0 472.7,100.0 474.1,100.0 475.4,100.0 476.8,100.0 478.2,100.0 479.6,100.0 481.0,100.0 482.3,100.0 483.7,100.0 485.1,100.0 486.5,100.0 487.9,100.0 489.2,100.0 490.6,100.0 492.0,100.0 493.4,100.0 494.8,100.0 496.1,100.0 497.5,100.0 498.9,100.0 500.3,100.0 501.7,100.0 503.0,100.0 504.4,100.0 505.8,100.0 507.2,100.0 508.6,100.0 509.9,100.0 511.3,100.0 512.7,100.0 514.1,100.0 515.5,100.0 516.8,100.0 518.2,100.0 519.6,100.0 521.0,100.0 522.4,100.0 523.7,100.0 525.1,100.0 526.5,100.0 527.9,100.0 529.3,100.0 530.6,100.0 532.0,100.0 533.4,100.0 534.8,100.0 536.2,100.0 537.5,100.0 538.9,100.0 540.3,100.0 541.7,100.0 543.1,100.0 544.4,100.0 545.8,100.0 547.2,100.0 548.6,100.0 550.0,100.0 551.3,100.0 552.7,100.0 554.1,100.0 555.5,100.0 556.9,100.0 558.2,100.0 559.6,100.0 561.0,100.0 562.4,100.0 563.8,100.0 565.1,100.0 566.5,100.0 567.9,100.0 569.3,100.0 570.7,100.0 572.0,100.0 573.4,100.0 574.8,100.0 576.2,100.0 577.6,100.0 578.9,100.0 580.3,100.0 581.7,100.0 583.1,100.0 584.5,100.0 585.8,100.0 587.2,100.0 588.6,100.0 590.0,100.0 591.4,100.0 592.7,100.0 594.1,100.0 595.5,100.0 596.9,100.0 598.3,100.0 599.6,100.0 601.0,100.0 602.4,100.0 603.8,100.0 605.2,100.0 606.5,100.0 607.9,100.0 609.3,100.0 610.7,100.0 612.1,100.0 613.4,100.0 614.8,100.0 616.2,100.0 617.6,100.0 619.0,100.0 620.3,100.0 621.7,100.0 623.1,100.0 624.5,100.0 625.9,100.0 627.2,100.0 628.6,100.0 630.0,100.0" fill="none" stroke="#a4442c" stroke-width="2.0"/>
<line x1="284.1" y1="100.0" x2="284.1" y2="250" stroke="#a4442c" stroke-width="0.9" stroke-dasharray="3 3"/>
<text x="279.1" y="242.0" fill="#a4442c" text-anchor="end" font-size="10" font-weight="normal">0,224 s</text>
<text x="622.0" y="93.0" fill="#a4442c" text-anchor="end" font-size="10" font-weight="normal">fila 5.7 · R = 4</text>
<line x1="262.0" y1="40" x2="262.0" y2="250" stroke="#8a8578" stroke-width="0.9" stroke-dasharray="3 3"/>
<text x="262.0" y="284.0" fill="#8a8578" text-anchor="middle" font-size="10" font-weight="normal">X arriostrada</text>
<text x="262.0" y="297.0" fill="#8a8578" text-anchor="middle" font-size="10" font-weight="normal">T* = 0,20 s</text>
<circle cx="262.0" cy="100.0" r="4" fill="#2f5d7c"/>
<text x="274.0" y="90.0" fill="#2f5d7c" text-anchor="start" font-size="10.5" font-weight="normal">4,00000</text>
<circle cx="262.0" cy="110.0" r="4" fill="#a4442c"/>
<text x="252.0" y="136.0" fill="#a4442c" text-anchor="end" font-size="10.5" font-weight="normal">3,73214</text>
<line x1="446.0" y1="40" x2="446.0" y2="250" stroke="#8a8578" stroke-width="0.9" stroke-dasharray="3 3"/>
<text x="446.0" y="284.0" fill="#8a8578" text-anchor="middle" font-size="10" font-weight="normal">Y marcos</text>
<text x="446.0" y="297.0" fill="#8a8578" text-anchor="middle" font-size="10" font-weight="normal">T* = 0,40 s</text>
<circle cx="446.0" cy="62.5" r="4" fill="#2f5d7c"/>
<text x="458.0" y="52.5" fill="#2f5d7c" text-anchor="start" font-size="10.5" font-weight="normal">5,00000</text>
<circle cx="446.0" cy="100.0" r="4" fill="#a4442c"/>
<text x="458.0" y="126.0" fill="#a4442c" text-anchor="start" font-size="10.5" font-weight="normal">4,00000</text>
<text x="78.0" y="22.0" fill="#2b2a26" text-anchor="start" font-size="11.5" font-weight="600">La frontera se mueve con R, porque Cr = 0,16 R</text>
</svg>
